<svg width="34" height="34" viewBox="0 0 34 34" fill="none" xmlns="http://www.w3.org/2000/svg">
<path d="M6.23333 29.7499L4.25 27.7666L14.9104 17.0708L8.5 15.477L15.5125 11.1208L14.9104 2.83325L21.25 8.18117L28.9 5.0645L25.8188 12.7499L31.1667 19.0541L22.8792 18.4874L18.4875 25.4999L16.8938 19.0895L6.23333 29.7499ZM7.08333 11.3333L4.25 8.49992L7.08333 5.66659L9.91667 8.49992L7.08333 11.3333ZM19.6562 18.3103L21.3563 15.5124L24.65 15.7603L22.525 13.2458L23.7646 10.1999L20.7188 11.4395L18.2042 9.34992L18.4521 12.6083L15.6542 14.3437L18.8417 15.1228L19.6562 18.3103ZM25.5 29.7499L22.6667 26.9166L25.5 24.0833L28.3333 26.9166L25.5 29.7499Z" fill="url(#paint0_linear_136_176)"/>
<defs>
<linearGradient id="paint0_linear_136_176" x1="8.13797" y1="-2.55008" x2="23.6898" y2="29.7499" gradientUnits="userSpaceOnUse">
<stop stop-color="#2C07BE"/>
<stop offset="0.581713" stop-color="#8A68F9"/>
<stop offset="1" stop-color="#FF28F4"/>
</linearGradient>
</defs>
</svg>
