<svg width="24" height="24" viewBox="0 0 24 24" fill="none" xmlns="http://www.w3.org/2000/svg">
<path d="M13.8845 9.59225V8.6615C14.4218 8.38967 14.9972 8.18583 15.6105 8.05C16.224 7.91417 16.8538 7.84625 17.5 7.84625C17.8692 7.84625 18.2237 7.86992 18.5635 7.91725C18.9032 7.96475 19.2538 8.03208 19.6155 8.11925V9.027C19.2667 8.91533 18.9266 8.83808 18.5953 8.79525C18.2638 8.75225 17.8987 8.73075 17.5 8.73075C16.8538 8.73075 16.2231 8.8035 15.6078 8.949C14.9923 9.0945 14.4178 9.30892 13.8845 9.59225ZM13.8845 15.0538V14.0845C14.3962 13.8128 14.9683 13.609 15.601 13.473C16.2337 13.3372 16.8667 13.2692 17.5 13.2692C17.8692 13.2692 18.2237 13.293 18.5635 13.3405C18.9032 13.3878 19.2538 13.4551 19.6155 13.5423V14.45C19.2667 14.3385 18.9266 14.2613 18.5953 14.2183C18.2638 14.1753 17.8987 14.1538 17.5 14.1538C16.8538 14.1538 16.2231 14.232 15.6078 14.3885C14.9923 14.5448 14.4178 14.7666 13.8845 15.0538ZM13.8845 12.3423V11.373C14.4218 11.1013 14.9972 10.8975 15.6105 10.7615C16.224 10.6257 16.8538 10.5578 17.5 10.5578C17.8692 10.5578 18.2237 10.5814 18.5635 10.6288C18.9032 10.6763 19.2538 10.7436 19.6155 10.8307V11.7385C19.2667 11.627 18.9266 11.5497 18.5953 11.5067C18.2638 11.4637 17.8987 11.4423 17.5 11.4423C16.8538 11.4423 16.2231 11.5214 15.6078 11.6798C14.9923 11.8381 14.4178 12.0589 13.8845 12.3423ZM6.5 16.0385C7.373 16.0385 8.222 16.1388 9.047 16.3395C9.872 16.5402 10.6897 16.8667 11.5 17.3193V7.50775C10.7782 6.99225 9.98267 6.60567 9.1135 6.348C8.24417 6.09033 7.373 5.9615 6.5 5.9615C5.9 5.9615 5.37467 5.99742 4.924 6.06925C4.47333 6.14108 3.973 6.27442 3.423 6.46925C3.26917 6.52058 3.16025 6.59433 3.09625 6.6905C3.03208 6.7865 3 6.89225 3 7.00775V16.023C3 16.2025 3.06408 16.3339 3.19225 16.4173C3.32042 16.5006 3.4615 16.5103 3.6155 16.4463C3.98083 16.3231 4.40292 16.2243 4.88175 16.15C5.36058 16.0757 5.9 16.0385 6.5 16.0385ZM12.5 17.3193C13.3103 16.8667 14.128 16.5402 14.953 16.3395C15.778 16.1388 16.627 16.0385 17.5 16.0385C18.1 16.0385 18.6394 16.0757 19.1182 16.15C19.5971 16.2243 20.0192 16.3231 20.3845 16.4463C20.5385 16.5103 20.6796 16.5006 20.8078 16.4173C20.9359 16.3339 21 16.2025 21 16.023V7.00775C21 6.89225 20.9679 6.78967 20.9038 6.7C20.8398 6.61033 20.7308 6.53342 20.577 6.46925C20.027 6.27442 19.5267 6.14108 19.076 6.06925C18.6253 5.99742 18.1 5.9615 17.5 5.9615C16.627 5.9615 15.7558 6.09033 14.8865 6.348C14.0173 6.60567 13.2218 6.99225 12.5 7.50775V17.3193ZM12 18.7693C11.1872 18.2128 10.3141 17.7852 9.38075 17.4865C8.44742 17.1878 7.48717 17.0385 6.5 17.0385C5.9795 17.0385 5.46825 17.0821 4.96625 17.1693C4.46442 17.2564 3.97567 17.3962 3.5 17.5885C3.13717 17.7333 2.7965 17.6898 2.478 17.4578C2.15933 17.2258 2 16.9053 2 16.4963V6.83075C2 6.58325 2.06508 6.35375 2.19525 6.14225C2.32542 5.93075 2.50775 5.78333 2.74225 5.7C3.32942 5.441 3.94033 5.25317 4.575 5.1365C5.20967 5.01983 5.85133 4.9615 6.5 4.9615C7.4795 4.9615 8.43492 5.1025 9.36625 5.3845C10.2977 5.66667 11.1757 6.077 12 6.6155C12.8243 6.077 13.7022 5.66667 14.6337 5.3845C15.5651 5.1025 16.5205 4.9615 17.5 4.9615C18.1487 4.9615 18.7903 5.01983 19.425 5.1365C20.0597 5.25317 20.6706 5.441 21.2578 5.7C21.4923 5.78333 21.6746 5.93075 21.8048 6.14225C21.9349 6.35375 22 6.58325 22 6.83075V16.4963C22 16.9053 21.8279 17.2193 21.4837 17.4385C21.1394 17.6577 20.773 17.6948 20.3845 17.55C19.9218 17.3705 19.4491 17.2403 18.9663 17.1595C18.4836 17.0788 17.9948 17.0385 17.5 17.0385C16.5128 17.0385 15.5526 17.1878 14.6193 17.4865C13.6859 17.7852 12.8128 18.2128 12 18.7693Z" fill="#009B9B"/>
</svg>
