<svg width="91" height="56" viewBox="0 0 91 56" fill="none" xmlns="http://www.w3.org/2000/svg">
<g clip-path="url(#clip0_165_155)">
<path fill-rule="evenodd" clip-rule="evenodd" d="M16.3694 24.8273C16.6468 24.6702 16.9687 24.4895 17.2892 24.3058C17.7394 24.0479 18.2086 23.8174 18.6338 23.5232C19.7925 22.7214 21.0821 22.074 21.8245 20.7752C22.0584 20.366 22.4703 20.0533 22.6784 19.6355C23.0725 18.8444 23.3848 18.0116 23.713 17.1889C23.7616 17.0673 23.727 16.9029 23.7005 16.7642C23.6733 16.6213 23.5245 16.4274 23.5741 16.3565C23.8998 15.8875 23.5335 15.5763 23.3511 15.2296C23.1137 14.778 22.8514 14.3398 22.6043 13.8929C22.1943 13.1514 21.4618 12.8805 20.7399 12.5721C20.1211 12.3079 19.5507 11.9163 18.9177 11.704C18.4058 11.5323 17.8339 11.5151 17.2856 11.4821C16.7915 11.4524 16.2912 11.4697 15.7971 11.5099C14.4405 11.6199 12.9936 11.5005 11.7569 11.9508C10.6081 12.3692 9.3764 12.5912 8.27672 13.2767C6.86034 14.1594 5.46215 15.0322 4.37168 16.2942C3.84663 16.9019 3.50482 17.666 3.06386 18.3488C2.71892 18.8831 2.34448 19.3964 1.69705 19.6075C1.67886 19.6133 1.65856 19.6351 1.64518 19.6307C1.23434 19.4972 0.674145 19.4797 0.451364 19.1968C0.164992 18.8331 0.125247 18.2607 0.0265124 17.7689C-0.0270387 17.5016 0.0170995 17.2148 0.0170995 16.7956C0.0317423 16.7563 0.146166 16.5726 0.165202 16.3793C0.265192 15.3648 0.85488 14.6724 1.60711 14.0649C2.50137 13.3428 3.37952 12.601 4.26395 11.867C4.3083 11.8299 4.33905 11.7584 4.38695 11.7467C5.36509 11.5065 6.02967 10.7102 6.89799 10.3146C7.72197 9.93927 8.65953 9.81271 9.54751 9.57779C9.74812 9.52466 9.95354 9.48721 10.1502 9.42279C10.4263 9.33221 10.6886 9.17992 10.9702 9.1295C12.1933 8.91049 13.4157 8.66323 14.6499 8.54127C15.2442 8.48249 15.8546 8.55822 16.4451 8.38919C16.4995 8.3735 16.5759 8.35426 16.615 8.37915C17.4657 8.91948 18.4734 8.48312 19.3756 8.84773C20.0778 9.13139 20.8734 9.17699 21.6157 9.37279C22.1042 9.50144 22.5782 9.69452 23.0472 9.88655C23.3258 10.0004 23.6216 10.1255 23.8375 10.3242C24.0343 10.5056 24.1337 10.7928 24.29 11.057C24.4613 10.7095 24.6242 10.7127 24.8307 11.1172C24.9449 11.3411 25.1938 11.5061 25.4045 11.6682C25.707 11.9008 26.0161 12.0818 26.026 12.5566C26.0297 12.7395 26.383 12.8909 26.4889 13.1009C26.7723 13.6637 27.1602 14.2329 27.2298 14.8315C27.3526 15.8867 27.3058 16.9676 27.2595 18.0344C27.2332 18.6402 27.0662 19.2399 26.9629 19.8424C26.9564 19.8798 26.9625 19.9288 26.9409 19.9533C26.2456 20.7429 26.3161 21.9079 25.5589 22.6886C25.0474 23.2157 24.732 23.9395 24.2008 24.4391C23.6442 24.9622 22.9311 25.3181 22.2925 25.7557C21.5773 26.2462 20.8771 26.7596 20.1542 27.2382C19.7337 27.5166 19.3087 27.8429 18.8372 27.9783C17.8588 28.259 16.9936 28.7567 16.0812 29.1721C14.9085 29.706 13.6586 30.0727 12.4349 30.49C12.1876 30.5743 11.9075 30.563 11.6548 30.5942C11.59 30.7709 11.5392 30.9343 11.4695 31.0897C11.4312 31.1753 11.3285 31.2401 11.3116 31.3255C11.1869 31.9572 11.0741 32.5913 10.9622 33.2253C10.8369 33.9349 10.7158 34.6448 10.5943 35.3548C10.5085 35.8565 10.3738 36.3568 10.3541 36.8614C10.3313 37.4446 10.1244 38.1531 9.76088 38.4215C10.2608 38.6344 10.0441 39.0158 9.99893 39.3622C9.96421 39.6281 9.94538 39.8969 9.89727 40.16C9.86108 40.3577 9.79477 40.5506 9.73201 40.7422C9.69729 40.8476 9.60901 40.9439 9.6019 41.0483C9.57115 41.4997 9.58914 41.9559 9.53413 42.4036C9.49731 42.704 9.37075 42.9937 9.27704 43.2859C9.26051 43.3374 9.1781 43.3752 9.17558 43.4223C9.11388 44.5484 8.18008 44.4479 7.46865 44.5864C7.11847 44.6546 6.72604 44.5212 6.35621 44.4586C6.2809 44.4456 6.20831 44.3498 6.15602 44.277C5.85437 43.8568 5.5406 43.4434 5.26991 43.0035C5.15026 42.809 5.04295 42.5496 5.06512 42.3337C5.22682 40.7715 5.41843 39.2122 5.61444 37.654C5.63891 37.4601 5.77718 37.2819 5.80898 37.0875C6.02318 35.7826 6.22024 34.4748 6.42921 33.169C6.48109 32.8452 6.63484 32.5157 6.5976 32.2059C6.56413 31.9271 6.38947 31.6031 6.17296 31.4267C5.9711 31.2623 5.63243 31.2648 5.35317 31.1968C4.67981 31.0335 4.23215 30.6542 4.08405 29.9461C4.03845 29.7275 3.90373 29.5275 3.75793 29.2037C3.86085 28.4561 4.65847 28.5318 5.23477 28.3425C5.823 28.1496 6.46393 28.1172 7.04944 27.9185C7.29419 27.8356 7.58683 27.5287 7.63118 27.2827C7.82614 26.2021 7.91065 25.1022 8.08825 24.018C8.26187 22.957 8.50578 21.9079 8.70701 20.8513C8.85679 20.0652 8.97665 19.2736 9.13061 18.4883C9.24064 17.9267 9.36155 17.3652 9.52011 16.8157C9.78117 15.9112 10.0776 15.0169 10.3575 14.1178C10.6039 13.3262 10.7405 13.2315 11.5663 13.258C11.7326 13.2633 11.9119 13.2689 12.0648 13.2156C12.9359 12.9131 13.5467 13.4187 14.0784 13.9446C14.3198 14.1833 14.4363 14.6619 14.4181 15.0219C14.3924 15.521 14.2393 16.0337 14.0387 16.4963C13.909 16.7952 13.8812 17.068 13.8805 17.3723C13.8805 17.5114 13.809 17.6505 13.7697 17.7894C13.6661 18.1551 13.5375 18.5157 13.4639 18.8873C13.2555 19.9372 13.0616 20.99 12.8783 22.0445C12.7758 22.635 12.8056 23.2697 12.5957 23.8151C12.3322 24.5001 12.2797 25.1965 12.187 25.8992C12.1391 26.2615 12.2836 26.3845 12.6141 26.2448C13.4293 25.8996 14.238 25.539 15.0507 25.1873C15.3691 25.0495 15.6868 24.9074 16.0138 24.792C16.1077 24.7589 16.2324 24.8112 16.3694 24.8273Z" fill="#F97316"/>
<path fill-rule="evenodd" clip-rule="evenodd" d="M51.3907 23.4877C51.4873 22.7051 51.5572 22.0012 51.6653 21.3031C51.7653 20.6576 51.9 20.0173 52.0299 19.3767C52.1228 18.9194 52.223 18.4634 52.3381 18.0114C52.606 16.9558 52.8853 15.9028 53.1597 14.8487C53.2718 14.4171 53.3587 13.9774 53.4992 13.5553C53.8291 12.5633 54.1527 11.5665 54.5489 10.6005C54.67 10.3054 55.0116 10.0955 55.266 9.86209C55.44 9.70248 55.6381 9.56943 55.8113 9.43556C56.0046 9.48325 56.2222 9.53701 56.4399 9.59098C56.4517 9.54915 56.4634 9.50731 56.4749 9.46526C56.4253 9.40606 56.3753 9.34707 56.3638 9.33306C56.7928 9.27093 57.2344 9.16069 57.6756 9.16215C57.9015 9.16299 58.3826 9.11111 58.1749 9.64893C58.6719 9.59935 59.2206 10.3955 59.0192 10.9746C58.8458 11.4741 58.551 11.9312 58.3165 12.4102C58.2841 12.4763 58.2952 12.5625 58.2745 12.6361C58.1174 13.1934 57.9584 13.75 57.7982 14.3061C57.4118 15.6467 57.0514 16.9954 56.6301 18.3247C56.1983 19.6876 55.9661 21.0852 55.7628 22.493C55.7369 22.6716 55.6505 22.862 55.5377 23.0036C55.1491 23.4923 55.1072 24.0456 55.1514 24.6346C55.1652 24.8202 55.1039 25.0149 55.0564 25.2005C54.9154 25.7525 54.7506 26.2987 54.6209 26.8531C54.5113 27.3218 54.4531 27.8028 54.3437 28.2713C54.227 28.7705 53.8806 29.3066 53.9818 29.7467C54.1966 30.681 53.3838 31.2851 53.4246 32.1605C53.4578 32.8785 53.1497 33.6054 53.0972 34.3357C53.0409 35.1117 53.1189 35.8966 53.1171 36.6775C53.1156 37.2996 53.1557 37.9138 53.0756 38.5478C53.0102 39.0651 53.3773 39.6293 53.5099 40.1828C53.5685 40.4272 53.5846 40.7163 53.5109 40.951C53.2955 41.6398 53.0761 42.3115 52.2117 42.527C51.5582 42.6899 51.0754 42.3387 50.6148 42.082C50.2261 41.8651 49.6992 41.4882 50.0061 40.8278C50.0126 40.8137 50.004 40.7769 49.9944 40.7734C49.2377 40.5039 49.4624 39.7781 49.3373 39.2499C49.2034 38.6855 49.2515 38.078 49.2191 37.4896C49.2181 37.4718 49.2032 37.4548 49.1949 37.4373C48.5807 37.3645 48.4062 37.7996 48.2259 38.2522C48.165 38.4047 48.0452 38.5514 47.9159 38.6562C47.1721 39.2597 46.475 39.9502 45.654 40.423C44.1146 41.3087 42.6292 41.4823 41.1733 40.2201C40.6723 39.7858 40.4763 38.9928 40.1619 38.3535C40.0207 38.0663 39.9182 37.7579 39.8255 37.4511C39.7979 37.3596 39.8634 37.2402 39.9012 37.0632C39.7776 36.8616 39.3201 36.6129 39.8408 36.2451C39.873 36.2225 39.8676 36.0738 39.8282 36.0332C39.4076 35.5979 39.6427 35.0914 39.6734 34.6147C39.7151 33.9706 39.7791 33.3276 39.8605 32.6875C39.8876 32.4728 39.9983 32.2691 40.069 32.0599C40.5715 30.5707 41.0664 29.0803 41.9029 27.73C42.2964 27.0947 42.5959 26.3977 43.0227 25.7877C43.3576 25.3088 43.7766 24.862 44.2395 24.5066C44.9547 23.9577 45.3714 23.0475 46.3322 22.794C46.5022 22.7492 46.6282 22.5147 46.7949 22.4859C47.2706 22.4039 47.7565 22.3737 48.2395 22.3419C48.5031 22.3246 48.7717 22.3708 49.0334 22.3438C49.7967 22.2652 50.2435 22.8438 50.8123 23.1701C50.9844 23.2697 51.1622 23.3628 51.3907 23.4877ZM43.531 37.2406C43.6289 37.2406 43.6684 37.2456 43.7059 37.24C44.4991 37.1172 45.448 37.3576 45.8521 36.3187C45.8753 36.2591 45.968 36.1976 46.0353 36.1882C46.9903 36.055 47.2838 35.1515 47.8145 34.5708C48.4186 33.9095 48.5253 32.8812 49.2601 32.2597C49.3049 32.2218 49.2848 32.1122 49.303 32.0379C49.3787 31.729 49.4507 31.419 49.5377 31.1129C49.6528 30.7079 49.8053 30.3124 49.8981 29.9028C50.1174 28.9349 50.2757 27.9519 50.5263 26.9928C50.71 26.2906 50.5866 25.9027 49.9147 25.6308C49.553 25.4846 49.181 25.3626 48.9133 25.2657C48.6962 25.359 48.5092 25.4442 48.3184 25.5197C48.1276 25.595 47.9069 25.6243 47.7458 25.7387C47.4406 25.9556 47.1865 26.2449 46.879 26.4581C45.9935 27.0725 45.313 27.8427 44.9288 28.861C44.8984 28.9412 44.815 29.0008 44.7694 29.0545C44.8501 29.1215 44.9225 29.1815 44.8892 29.1539C44.7102 29.3827 44.5024 29.5457 44.4368 29.7534C44.3073 30.1641 44.2918 30.6102 44.1669 31.0228C43.5544 33.0492 42.9838 35.0758 43.531 37.2406Z" fill="#F97316"/>
<path fill-rule="evenodd" clip-rule="evenodd" d="M35.4343 23.516C35.7558 23.2282 35.9445 23.0592 36.0587 22.9571C36.5478 23.2407 36.9474 23.4633 37.3371 23.7018C37.7044 23.9269 38.0485 24.1708 37.5469 24.6059C37.5071 24.6404 37.4538 24.7019 37.4607 24.7412C37.6674 25.9035 36.87 26.8256 36.7062 27.9014C36.6125 28.5173 36.4567 29.1285 36.2741 29.7251C35.6271 31.8387 35.5418 34.0283 35.3764 36.2059C35.3509 36.5421 35.4154 36.9035 35.5204 37.2267C35.67 37.6861 35.968 37.8746 36.4472 37.5658C36.9953 37.2127 38.3792 37.6062 38.3834 38.2718C38.3861 38.6935 38.2702 39.1876 38.0297 39.5209C37.7397 39.9221 37.1524 40.1179 36.8917 40.5283C36.5558 41.0576 36.0735 41.0025 35.6156 41.0975C35.3729 41.1479 35.111 41.1513 34.8636 41.1235C34.4661 41.0785 34.0628 41.0262 33.6813 40.9124C32.9751 40.7013 32.4727 40.3461 32.397 39.4778C32.3466 38.8983 31.9253 38.3593 31.8184 37.775C31.7134 37.201 31.7954 36.5927 31.7954 35.9996C31.7454 35.9666 31.6956 35.9333 31.6456 35.9003C31.4119 36.2053 31.2368 36.664 30.9314 36.7805C30.4474 36.9648 30.5953 37.7827 29.9073 37.684C29.8412 37.6746 29.7104 37.925 29.654 38.0718C29.3621 38.8301 28.7783 39.3491 28.1275 39.7447C27.1906 40.3139 26.2706 40.9699 25.1435 41.1203C24.7858 41.168 24.4009 41.0998 24.0416 41.0233C23.6359 40.9369 23.2356 40.8042 22.8521 40.645C22.6829 40.575 22.4804 40.4131 22.4344 40.2522C22.3313 39.8926 22.1265 39.6832 21.8784 39.4092C21.5169 39.0098 21.4 38.3139 21.3471 37.7292C21.2822 37.0108 21.4611 36.2716 21.4067 35.5509C21.3328 34.5749 21.4399 33.6829 21.8604 32.7746C22.1637 32.1199 22.1198 31.3093 22.3967 30.6365C22.8021 29.6531 23.2903 28.6886 23.8651 27.7945C24.4621 26.8661 25.1249 25.951 25.9048 25.177C26.7593 24.3287 27.4542 23.2886 28.5905 22.7372C29.3444 22.3716 30.0479 21.8894 30.8236 21.5852C31.5338 21.3068 32.3018 21.129 33.0603 21.0378C33.5644 20.9771 34.1409 21.0466 34.5988 21.251C34.8681 21.371 35.0116 21.854 35.1337 22.2011C35.2735 22.5977 35.3266 23.0253 35.4343 23.516ZM33.2011 24.3708C32.9992 24.4488 32.8789 24.4917 32.7616 24.541C32.0386 24.8446 31.2459 25.0473 30.6142 25.4834C30.0055 25.9037 29.5576 26.5601 29.0491 27.1218C28.4515 27.782 27.8627 28.4505 27.276 29.1205C27.2163 29.1885 27.191 29.2898 27.1601 29.3791C26.8542 30.2556 26.6087 31.1593 26.2294 32.0025C25.8805 32.7782 25.7745 33.5848 25.6375 34.4004C25.5446 34.9529 25.381 35.4936 25.2306 36.1164C25.2695 36.3806 25.3253 36.7617 25.396 37.242C25.6263 37.2669 25.9941 37.4259 26.1995 37.3062C26.8185 36.9458 27.468 36.5596 27.934 36.0316C28.748 35.1089 29.4636 34.094 30.1639 33.0786C30.7218 32.2696 31.2239 31.4182 31.6956 30.5556C31.9864 30.0238 32.3439 29.4402 32.3609 28.8706C32.3797 28.2453 33.0461 28.0334 32.9898 27.3291C32.9465 26.7846 33.5278 26.198 33.7993 25.6152C33.8594 25.4868 33.8343 25.2665 33.7606 25.1389C33.6013 24.8621 33.3856 24.6176 33.2011 24.3708Z" fill="#F97316"/>
<path fill-rule="evenodd" clip-rule="evenodd" d="M72.3909 37.7717C72.2654 37.6582 72.1399 37.5442 72.0592 37.4709C72.1027 36.9863 72.2137 36.5491 72.1642 36.1307C72.0646 35.2893 71.8477 34.4622 71.7368 33.6217C71.6588 33.0318 71.6843 32.4289 71.6462 31.8329C71.6295 31.5667 71.5826 31.3006 71.5276 31.0389C71.4527 30.6824 71.1689 30.6669 70.9835 30.8581C70.7469 31.1027 70.5675 31.0834 70.2755 30.9968C70.0897 30.9418 69.8454 31.0851 69.6272 31.1393C69.3442 31.2096 69.0641 31.466 68.775 31.1288C68.7304 31.0769 68.5279 31.0667 68.5043 31.1041C68.0811 31.77 67.4527 31.2117 66.9509 31.3752C66.6342 31.4786 66.3206 31.5926 66.0014 31.6878C65.8673 31.7277 65.7123 31.7744 65.5841 31.7442C64.635 31.5219 63.7062 32.193 63.5899 33.1575C63.5307 33.6474 63.4782 34.1771 63.2548 34.6003C62.6787 35.6933 62.672 36.9089 62.398 38.0634C62.1459 39.1271 62.083 40.2387 61.7891 41.288C61.6782 41.6837 61.577 42.2404 61.0237 42.4492C60.5239 42.6376 60.0447 42.559 59.5374 42.545C58.9758 42.5295 58.5361 42.3747 58.1323 42.0295C57.9047 41.8352 57.6866 41.63 57.6123 41.416C57.6405 40.9326 57.7376 40.4414 57.6838 39.9674C57.5276 38.5918 58.0376 37.341 58.3396 36.0514C58.5007 35.363 58.6653 34.6729 58.8825 34.0012C59.0394 33.5161 59.3077 33.0678 59.4818 32.5869C59.5615 32.3664 59.5035 32.0997 59.5615 31.8673C59.6657 31.4491 59.7782 31.0274 59.9491 30.6339C60.0612 30.3751 60.2813 30.1632 60.4771 29.8973C60.1472 29.6986 60.3139 29.4679 60.4794 29.1508C60.6948 28.7378 60.7685 28.2529 60.9258 27.8072C61.1829 27.0781 61.4897 26.3652 61.7186 25.6281C62.0117 24.6825 62.2238 23.7117 62.5168 22.7664C62.7599 21.983 63.0722 21.2213 63.3496 20.4486C63.7117 19.4395 64.0842 18.4339 64.4256 17.4179C64.7413 16.4787 64.9547 15.4993 65.3389 14.5905C65.65 13.855 66.2667 13.2409 66.5327 12.496C66.8455 11.6216 67.4349 11.2147 68.2449 11.0827C69.5165 10.8758 70.784 10.8706 71.9372 11.5992C72.1577 11.7385 72.3972 11.8485 72.6125 11.9952C72.8076 12.1282 73.0327 12.2592 73.1561 12.4487C73.8381 13.4959 73.9849 14.7081 74.1516 15.9065C74.2991 16.9661 74.4029 18.0317 74.5407 19.0924C74.6235 19.7305 74.7553 20.3626 74.8202 21.0019C74.8396 21.1931 74.7072 21.3998 74.6675 21.5263C74.8009 22.084 74.9662 22.593 75.0367 23.1145C75.1291 23.8004 75.1429 24.4968 75.1984 25.1881C75.2312 25.5973 75.2377 26.0151 75.3316 26.411C75.4494 26.9062 75.3691 27.4618 76.005 27.7904C76.3439 27.9655 76.5089 28.5048 76.7183 28.8976C77.0865 29.5888 77.0739 29.5926 76.4746 30.08C76.4029 30.1383 76.3767 30.2557 76.3029 30.3082C75.8841 30.6048 75.9134 31.0042 75.9816 31.4466C76.0383 31.8168 76.2363 32.2252 75.8389 32.5584C75.8002 32.5906 75.8904 32.7833 75.9289 32.8988C76.0535 33.2763 76.2546 33.6445 76.296 34.0305C76.4508 35.4676 76.5562 36.9099 76.6752 38.3506C76.7957 39.8063 76.9231 41.2618 77.0208 42.7194C77.0513 43.178 76.9411 43.5823 76.3455 43.6357C76.1782 43.6505 75.9782 43.7819 75.8722 43.9202C75.4048 44.5299 74.8953 44.2205 74.384 44.0264C74.0621 43.904 73.6301 43.8712 73.4442 43.6398C73.1756 43.3056 73.0208 42.841 72.9331 42.4084C72.7528 41.5185 72.652 40.6125 72.5116 39.714C72.4738 39.4714 72.3957 39.2344 72.3635 38.9913C72.3114 38.5997 72.2822 38.2052 72.2435 37.8119C72.2924 37.7987 72.3416 37.7853 72.3909 37.7717ZM69.7692 16.1689C69.0871 16.0684 68.9599 16.3812 68.9294 16.7916C68.9168 16.961 68.9383 17.1441 68.8812 17.2974C68.6049 18.0384 68.2771 18.7611 68.0228 19.5087C67.5236 20.976 67.077 22.4612 66.5769 23.928C66.3102 24.7099 66.3926 25.6368 65.656 26.2328C65.6443 26.2422 65.6454 26.2692 65.6429 26.2882C65.5657 26.8987 65.4891 27.5091 65.4176 28.0764C65.8161 27.9883 66.2516 27.8659 66.6955 27.8017C67.0902 27.7448 67.5826 27.8908 67.8763 27.7034C68.5501 27.2729 69.2362 27.3815 69.942 27.4028C70.8792 27.4312 71.2724 26.9286 71.0741 25.9962C70.9743 25.5266 70.8691 25.0555 70.8141 24.5798C70.653 23.1822 70.5369 21.7797 70.3644 20.3838C70.1891 18.9678 69.9673 17.5572 69.7692 16.1689Z" fill="white"/>
<path fill-rule="evenodd" clip-rule="evenodd" d="M14.0377 51.1316C14.0243 51.0947 14.0548 51.178 14.0557 51.1805C14.447 51.1046 14.816 51.0456 15.1788 50.9596C15.7546 50.823 16.3523 50.7314 16.8939 50.5078C17.8929 50.0948 18.9175 49.9158 19.9887 49.9346C20.1605 49.9377 20.3402 49.9381 20.5035 49.8938C21.9011 49.5137 23.3549 49.4972 24.7598 49.2478C26.0193 49.0246 27.2955 48.9033 28.5535 48.6631C29.8091 48.4234 31.1056 48.396 32.3845 48.2812C33.6813 48.1651 34.9784 48.0525 36.2762 47.9454C37.4769 47.8463 38.678 47.7526 39.8796 47.6639C40.7297 47.6009 41.5803 47.5105 42.4312 47.503C44.0093 47.4896 45.5878 47.5329 47.1663 47.5402C47.5261 47.5419 47.8857 47.4919 48.2457 47.4683C48.3806 47.4595 48.5187 47.4386 48.6505 47.4572C49.3521 47.5566 50.0378 47.6009 50.7626 47.5384C52.0675 47.4256 53.3918 47.4522 54.7026 47.5222C56.0832 47.5961 57.4558 47.8053 58.835 47.9191C59.2615 47.9544 59.6987 47.8818 60.1294 47.841C61.0488 47.754 61.887 48.0665 62.7306 48.3546C62.7697 48.3678 62.7875 48.4429 62.8178 48.4931C63.2161 48.046 64.397 48.1425 64.67 48.6627C65.3249 48.1555 65.9669 48.4452 66.6396 48.7092C66.6769 48.5998 66.7162 48.4843 66.7444 48.4008C67.3496 48.6981 67.8665 49.1106 68.6285 48.9491C69.0249 48.8652 69.4778 49.0326 69.9025 49.1029C70.2915 49.1675 70.6775 49.2539 71.1431 49.3459C71.1919 49.8798 71.7481 49.4455 72.0525 49.5078C73.0383 49.7103 74.0537 49.7649 75.0501 49.9239C75.2915 49.9624 75.5036 50.1831 75.7211 50.3151C76.0767 50.2944 76.4648 50.2059 76.8198 50.2785C77.0066 50.3168 77.1015 50.6902 77.299 50.8161C77.5791 50.9947 77.6944 51.165 77.5232 51.4688C77.5138 51.4855 77.5061 51.5041 77.5019 51.5227C77.2841 52.5603 77.2881 52.5337 76.233 52.381C75.2182 52.2342 74.1943 52.1536 73.1756 52.0346C73.0076 52.0149 72.8187 51.9861 72.6859 51.894C72.3476 51.66 72.0422 51.4146 71.7632 51.9612C71.7404 52.0062 71.564 52.026 71.4994 51.9882C70.6221 51.4757 69.6418 51.8016 68.72 51.6432C67.9225 51.5062 67.1187 51.5575 66.3146 51.264C65.7083 51.0424 64.9597 51.2144 64.2748 51.2043C63.7997 51.1979 63.323 51.2023 62.8515 51.1558C62.666 51.1376 62.4932 50.9935 62.3662 50.9318C62.2185 50.9956 62.0907 51.1004 61.9656 51.097C60.9473 51.0696 59.9294 51.0234 58.9113 50.9807C57.319 50.9138 55.7273 50.8044 54.1348 50.7889C52.4524 50.7724 50.7691 50.8596 49.0858 50.8705C48.4476 50.8749 47.8089 50.7692 47.1699 50.7571C46.7502 50.7494 46.2764 50.7092 45.9204 50.8793C45.3508 51.1516 44.7883 51.0054 44.2264 51.0472C43.5282 51.0993 42.8257 51.106 42.125 51.1142C41.8654 51.1171 41.6054 51.0677 41.3456 51.0429C41.2531 51.0341 41.1253 50.983 41.073 51.0253C40.3818 51.5805 39.5441 51.3966 38.8276 51.2918C38.2174 51.2027 37.7166 51.3788 37.1654 51.4388C35.9453 51.5719 34.7211 51.6662 33.5005 51.7951C32.782 51.8708 32.0672 51.9813 31.3514 52.0794C31.1458 52.1076 30.9431 52.1683 30.7372 52.18C29.015 52.2787 27.3118 52.5387 25.6059 52.7774C24.7803 52.8931 23.9431 52.9402 23.1263 53.096C22.4586 53.223 21.821 53.5031 21.1551 53.6453C20.5393 53.7767 19.9028 53.8102 19.2767 53.8957C18.57 53.9924 17.7567 53.9116 17.1823 54.2424C16.1381 54.844 14.988 54.8356 13.8998 55.1427C13.411 55.2808 12.9158 55.3964 12.4232 55.5213C11.8059 55.6778 11.4268 55.1479 10.9171 54.9896C10.6002 54.891 10.3092 54.7082 9.90712 54.5158C9.88976 54.4605 9.81195 54.2428 9.75212 54.02C9.56365 53.318 9.7381 52.8216 10.3037 52.481C11.1543 51.9685 12.0425 51.5443 13.0304 51.3623C13.3361 51.3062 13.6373 51.2244 14.0377 51.1316Z" fill="#F97316"/>
<path fill-rule="evenodd" clip-rule="evenodd" d="M87.7874 42.1692C87.3583 42.2072 86.9291 42.2426 86.5007 42.2842C86.2153 42.312 85.9168 42.4219 85.6489 42.3694C84.6199 42.1673 83.6915 42.6026 82.7163 42.7444C81.99 42.8501 81.2355 42.8005 80.496 42.7666C79.6298 42.7273 79.275 41.9922 78.8914 41.3939C78.5462 40.8557 79.3056 39.8338 79.9633 39.7451C80.4226 39.6832 80.8615 39.4646 81.3066 39.3079C81.352 39.292 81.3985 39.2259 81.4102 39.1751C81.5175 38.714 81.6758 38.2555 81.7074 37.7884C81.7806 36.7142 81.7522 35.6325 81.8392 34.56C81.912 33.6626 82.1093 32.7761 82.2101 31.8799C82.2427 31.5889 82.1011 31.2814 82.1143 30.9846C82.1641 29.8357 82.2388 28.6879 82.3157 27.5405C82.3459 27.0931 82.3881 26.6446 82.4647 26.2036C82.4862 26.0811 82.6509 25.9834 82.7504 25.8735C82.7167 25.7587 82.6283 25.6098 82.6385 25.4681C82.7331 24.1446 82.6634 22.773 83.006 21.5143C83.3041 20.4198 83.0675 19.2934 83.4811 18.2278C83.6449 17.8061 83.5081 17.2676 83.5081 16.7388C83.1345 16.5999 82.6394 16.4344 82.1586 16.2332C81.2968 15.8723 81.2094 15.0126 80.9728 14.2704C80.9381 14.1614 81.1851 13.8462 81.3426 13.8119C82.2883 13.6048 83.2477 13.4604 84.199 13.2776C84.8517 13.1521 85.4953 12.9785 86.1494 12.8647C86.5078 12.8023 86.8797 12.8168 87.2458 12.8009C87.7639 12.7785 88.2819 12.7565 88.8002 12.7425C88.9134 12.7394 89.0479 12.7373 89.1374 12.7921C89.7769 13.1822 90.58 13.346 90.8904 13.9583C90.8904 14.431 90.8749 14.7676 90.8935 15.1021C90.9423 15.9694 90.8598 16.292 89.8478 16.3037C89.3085 16.31 88.7642 16.3581 88.2321 16.447C87.546 16.5616 87.3159 16.9496 87.4602 17.6285C87.4721 17.6849 87.4907 17.7439 87.4849 17.7996C87.3378 19.2287 87.2008 20.6589 87.0353 22.086C86.8674 23.5342 86.6776 24.9801 86.4818 26.4252C86.4339 26.7787 86.325 27.1241 86.2434 27.473C86.2348 27.5096 86.217 27.5449 86.2139 27.582C86.1605 28.215 86.0967 28.8475 86.0597 29.4814C86.0106 30.3211 85.9959 31.1626 85.9424 32.0019C85.8568 33.3398 85.7698 34.6782 85.6466 36.013C85.5867 36.6621 85.4575 37.3058 85.3324 37.9467C85.2659 38.2879 85.3615 38.4572 85.7106 38.5097C86.1808 38.5806 86.644 38.7138 87.1159 38.7557C88.4147 38.8711 88.9816 40.1091 89.0613 41.1149C89.0789 41.337 88.695 41.6071 88.4689 41.8276C88.2817 42.01 88.0549 42.1518 87.8457 42.3116C87.8263 42.2639 87.8068 42.2164 87.7874 42.1692Z" fill="white"/>
<path fill-rule="evenodd" clip-rule="evenodd" d="M80.6541 0C80.8549 0.825031 81.0572 1.53731 81.1892 2.26235C81.2371 2.52509 81.1438 2.82632 81.0681 3.09701C80.8384 3.9166 80.4863 4.69038 80.5966 5.60055C80.6491 6.03127 80.3773 6.5103 80.2117 6.95189C80.1742 7.05105 79.9663 7.13891 79.836 7.14037C79.4954 7.14393 79.1542 7.09665 78.9411 7.0795C78.8731 6.28501 78.8016 5.57608 78.757 4.86526C78.7415 4.61842 78.776 4.36489 78.8158 4.11909C78.9225 3.45681 79.0633 2.79954 79.1547 2.13538C79.2415 1.50698 79.5245 1.04321 80.0711 0.703495C80.2838 0.571289 80.4112 0.301856 80.6541 0Z" fill="white"/>
<path fill-rule="evenodd" clip-rule="evenodd" d="M87.912 6.32014C87.7616 6.53246 87.6255 6.80294 87.42 7.00188C86.2819 8.10513 84.8203 8.69315 83.451 9.42258C83.2663 9.52111 82.9362 9.45396 82.7289 9.35146C82.6429 9.30879 82.6609 8.96216 82.7038 8.76971C82.9224 7.78967 83.5755 7.12739 84.3528 6.55213C84.7887 6.22956 85.1843 5.85198 85.6192 5.52795C86.1926 5.10079 87.3075 5.25057 87.7399 5.80596C87.8267 5.91725 87.8376 6.08815 87.912 6.32014Z" fill="white"/>
<path fill-rule="evenodd" clip-rule="evenodd" d="M70.8374 3.14005C70.9721 2.86623 71.0721 2.51605 71.2953 2.28489C71.3773 2.20038 71.8101 2.33133 71.9806 2.48069C72.4126 2.8589 72.7811 3.30865 73.1857 3.7195C73.6413 4.18201 74.139 4.60708 74.56 5.09804C74.8717 5.46139 75.1305 5.88625 75.3267 6.32261C75.3895 6.46235 75.2215 6.76881 75.0767 6.92047C74.9495 7.05351 74.6579 7.18634 74.5255 7.12673C74.2134 6.98657 73.9496 6.73534 73.6721 6.52197C73.2353 6.18601 72.7263 5.90633 72.386 5.49005C71.8413 4.824 71.4089 4.06591 70.9307 3.34547C70.8993 3.29778 70.8826 3.24088 70.8374 3.14005Z" fill="white"/>
<path fill-rule="evenodd" clip-rule="evenodd" d="M77.9813 52.6645C77.4955 52.2051 78.0733 51.6631 77.8039 51.1899C78.404 51.4581 78.4753 52.0729 77.9813 52.6645Z" fill="#F97316"/>
</g>
<defs>
<clipPath id="clip0_165_155">
<rect width="91" height="56" fill="white"/>
</clipPath>
</defs>
</svg>
