<svg width="91" height="56" viewBox="0 0 91 56" fill="none" xmlns="http://www.w3.org/2000/svg">
<path fill-rule="evenodd" clip-rule="evenodd" d="M16.3694 24.8275C16.6468 24.6704 16.9687 24.4897 17.2892 24.306C17.7394 24.0481 18.2086 23.8176 18.6338 23.5234C19.7925 22.7216 21.0821 22.0742 21.8245 20.7754C22.0584 20.3662 22.4703 20.0535 22.6784 19.6357C23.0725 18.8446 23.3848 18.0118 23.713 17.1891C23.7616 17.0675 23.727 16.9031 23.7005 16.7644C23.6733 16.6215 23.5245 16.4276 23.5741 16.3567C23.8998 15.8877 23.5335 15.5765 23.3511 15.2298C23.1137 14.7782 22.8514 14.34 22.6043 13.8931C22.1943 13.1516 21.4618 12.8807 20.7399 12.5723C20.1211 12.3081 19.5507 11.9165 18.9177 11.7042C18.4058 11.5325 17.8339 11.5153 17.2856 11.4823C16.7915 11.4526 16.2912 11.4699 15.7971 11.5101C14.4405 11.6201 12.9936 11.5007 11.7569 11.951C10.6081 12.3694 9.3764 12.5914 8.27672 13.2769C6.86034 14.1596 5.46215 15.0324 4.37168 16.2944C3.84663 16.9021 3.50482 17.6662 3.06386 18.349C2.71892 18.8833 2.34448 19.3966 1.69705 19.6077C1.67886 19.6135 1.65856 19.6353 1.64518 19.6309C1.23434 19.4974 0.674145 19.4799 0.451364 19.197C0.164992 18.8333 0.125247 18.2609 0.0265124 17.7691C-0.0270387 17.5018 0.0170995 17.215 0.0170995 16.7958C0.0317423 16.7565 0.146166 16.5728 0.165202 16.3795C0.265192 15.365 0.85488 14.6726 1.60711 14.0651C2.50137 13.343 3.37952 12.6012 4.26395 11.8672C4.3083 11.8301 4.33905 11.7586 4.38695 11.7469C5.36509 11.5067 6.02967 10.7104 6.89799 10.3148C7.72197 9.93951 8.65953 9.81295 9.54751 9.57803C9.74812 9.5249 9.95354 9.48745 10.1502 9.42303C10.4263 9.33245 10.6886 9.18016 10.9702 9.12974C12.1933 8.91073 13.4157 8.66347 14.6499 8.54151C15.2442 8.48273 15.8546 8.55846 16.4451 8.38943C16.4995 8.37374 16.5759 8.3545 16.615 8.37939C17.4657 8.91972 18.4734 8.48336 19.3756 8.84797C20.0778 9.13163 20.8734 9.17723 21.6157 9.37303C22.1042 9.50168 22.5782 9.69476 23.0472 9.88679C23.3258 10.0006 23.6216 10.1257 23.8375 10.3244C24.0343 10.5058 24.1337 10.793 24.29 11.0572C24.4613 10.7097 24.6242 10.7129 24.8307 11.1174C24.9449 11.3413 25.1938 11.5063 25.4045 11.6684C25.707 11.901 26.0161 12.082 26.026 12.5568C26.0297 12.7397 26.383 12.8911 26.4889 13.1011C26.7723 13.6639 27.1602 14.2331 27.2298 14.8317C27.3526 15.8869 27.3058 16.9678 27.2595 18.0346C27.2332 18.6404 27.0662 19.2401 26.9629 19.8426C26.9564 19.88 26.9625 19.929 26.9409 19.9535C26.2456 20.7431 26.3161 21.9081 25.5589 22.6888C25.0474 23.2159 24.732 23.9397 24.2008 24.4393C23.6442 24.9624 22.9311 25.3183 22.2925 25.7559C21.5773 26.2464 20.8771 26.7598 20.1542 27.2384C19.7337 27.5168 19.3087 27.8431 18.8372 27.9785C17.8588 28.2592 16.9936 28.7569 16.0812 29.1723C14.9085 29.7062 13.6586 30.0729 12.4349 30.4902C12.1876 30.5745 11.9075 30.5632 11.6548 30.5944C11.59 30.7711 11.5392 30.9345 11.4695 31.0899C11.4312 31.1755 11.3285 31.2403 11.3116 31.3257C11.1869 31.9574 11.0741 32.5915 10.9622 33.2255C10.8369 33.9351 10.7158 34.645 10.5943 35.355C10.5085 35.8567 10.3738 36.357 10.3541 36.8616C10.3313 37.4448 10.1244 38.1533 9.76088 38.4217C10.2608 38.6346 10.0441 39.016 9.99893 39.3624C9.96421 39.6283 9.94538 39.8971 9.89727 40.1602C9.86108 40.3579 9.79477 40.5508 9.73201 40.7424C9.69729 40.8478 9.60901 40.9441 9.6019 41.0485C9.57115 41.4999 9.58914 41.9561 9.53413 42.4038C9.49731 42.7042 9.37075 42.9939 9.27704 43.2861C9.26051 43.3376 9.1781 43.3754 9.17558 43.4225C9.11388 44.5486 8.18008 44.4481 7.46865 44.5866C7.11847 44.6548 6.72604 44.5214 6.35621 44.4588C6.2809 44.4458 6.20831 44.35 6.15602 44.2772C5.85437 43.857 5.5406 43.4436 5.26991 43.0037C5.15026 42.8092 5.04295 42.5498 5.06512 42.3339C5.22682 40.7717 5.41843 39.2124 5.61444 37.6542C5.63891 37.4603 5.77718 37.2821 5.80898 37.0877C6.02318 35.7828 6.22024 34.475 6.42921 33.1692C6.48109 32.8454 6.63484 32.5159 6.5976 32.2061C6.56413 31.9273 6.38947 31.6033 6.17296 31.4269C5.9711 31.2625 5.63243 31.265 5.35317 31.197C4.67981 31.0337 4.23215 30.6544 4.08405 29.9463C4.03845 29.7277 3.90373 29.5277 3.75793 29.2039C3.86085 28.4563 4.65847 28.532 5.23477 28.3427C5.823 28.1498 6.46393 28.1174 7.04944 27.9187C7.29419 27.8358 7.58683 27.5289 7.63118 27.2829C7.82614 26.2023 7.91065 25.1024 8.08825 24.0182C8.26187 22.9572 8.50578 21.9081 8.70701 20.8515C8.85679 20.0654 8.97665 19.2738 9.13061 18.4885C9.24064 17.9269 9.36155 17.3654 9.52011 16.8159C9.78117 15.9114 10.0776 15.0171 10.3575 14.118C10.6039 13.3264 10.7405 13.2317 11.5663 13.2582C11.7326 13.2635 11.9119 13.2691 12.0648 13.2158C12.9359 12.9133 13.5467 13.4189 14.0784 13.9448C14.3198 14.1835 14.4363 14.6621 14.4181 15.0221C14.3924 15.5212 14.2393 16.0339 14.0387 16.4965C13.909 16.7954 13.8812 17.0682 13.8805 17.3725C13.8805 17.5116 13.809 17.6507 13.7697 17.7896C13.6661 18.1553 13.5375 18.5159 13.4639 18.8875C13.2555 19.9374 13.0616 20.9902 12.8783 22.0447C12.7758 22.6352 12.8056 23.2699 12.5957 23.8153C12.3322 24.5003 12.2797 25.1967 12.187 25.8994C12.1391 26.2617 12.2836 26.3847 12.6141 26.245C13.4293 25.8998 14.238 25.5392 15.0507 25.1875C15.3691 25.0497 15.6868 24.9076 16.0138 24.7922C16.1077 24.7591 16.2324 24.8114 16.3694 24.8275Z" fill="#F97316"/>
<path fill-rule="evenodd" clip-rule="evenodd" d="M51.3908 23.4875C51.4874 22.7049 51.5573 22.001 51.6654 21.3029C51.7654 20.6574 51.9001 20.0171 52.03 19.3765C52.1229 18.9192 52.2231 18.4632 52.3382 18.0112C52.6061 16.9556 52.8854 15.9026 53.1598 14.8485C53.2719 14.4169 53.3588 13.9772 53.4993 13.5551C53.8292 12.5631 54.1528 11.5663 54.549 10.6003C54.6701 10.3052 55.0117 10.0953 55.2661 9.8619C55.4401 9.70229 55.6382 9.56924 55.8114 9.43537C56.0047 9.48306 56.2223 9.53682 56.44 9.59079C56.4518 9.54896 56.4635 9.50712 56.475 9.46507C56.4254 9.40587 56.3754 9.34688 56.3639 9.33287C56.7929 9.27074 57.2345 9.1605 57.6757 9.16196C57.9016 9.1628 58.3827 9.11092 58.175 9.64874C58.672 9.59916 59.2207 10.3953 59.0193 10.9744C58.8459 11.4739 58.5511 11.931 58.3166 12.41C58.2842 12.4761 58.2953 12.5623 58.2746 12.6359C58.1175 13.1932 57.9585 13.7498 57.7983 14.3059C57.4119 15.6465 57.0515 16.9952 56.6302 18.3245C56.1984 19.6874 55.9662 21.085 55.7629 22.4928C55.737 22.6714 55.6506 22.8618 55.5378 23.0034C55.1492 23.4921 55.1073 24.0454 55.1515 24.6344C55.1653 24.82 55.104 25.0147 55.0565 25.2003C54.9155 25.7523 54.7507 26.2985 54.621 26.8529C54.5114 27.3216 54.4532 27.8026 54.3438 28.2711C54.2271 28.7703 53.8807 29.3064 53.9819 29.7465C54.1967 30.6808 53.3839 31.2849 53.4247 32.1603C53.4579 32.8783 53.1498 33.6052 53.0973 34.3355C53.041 35.1115 53.119 35.8964 53.1172 36.6773C53.1157 37.2994 53.1558 37.9136 53.0757 38.5476C53.0103 39.0649 53.3774 39.6291 53.51 40.1826C53.5686 40.427 53.5847 40.7161 53.511 40.9508C53.2956 41.6396 53.0762 42.3113 52.2118 42.5268C51.5583 42.6897 51.0755 42.3385 50.6149 42.0818C50.2262 41.8649 49.6993 41.488 50.0062 40.8276C50.0127 40.8135 50.0041 40.7767 49.9945 40.7732C49.2378 40.5037 49.4625 39.7779 49.3374 39.2497C49.2035 38.6853 49.2516 38.0778 49.2192 37.4894C49.2182 37.4716 49.2033 37.4546 49.195 37.4371C48.5808 37.3643 48.4063 37.7994 48.226 38.252C48.1651 38.4045 48.0453 38.5512 47.916 38.656C47.1722 39.2595 46.4751 39.95 45.6541 40.4228C44.1147 41.3085 42.6293 41.4821 41.1734 40.2199C40.6724 39.7856 40.4764 38.9926 40.162 38.3533C40.0208 38.0661 39.9183 37.7577 39.8256 37.4509C39.798 37.3594 39.8635 37.24 39.9013 37.063C39.7777 36.8614 39.3202 36.6127 39.8409 36.2449C39.8731 36.2223 39.8677 36.0736 39.8283 36.033C39.4077 35.5977 39.6428 35.0912 39.6735 34.6145C39.7152 33.9704 39.7792 33.3274 39.8606 32.6873C39.8877 32.4726 39.9984 32.2689 40.0691 32.0597C40.5716 30.5705 41.0665 29.0801 41.903 27.7298C42.2965 27.0945 42.596 26.3975 43.0228 25.7875C43.3577 25.3086 43.7767 24.8618 44.2396 24.5064C44.9548 23.9575 45.3715 23.0473 46.3323 22.7938C46.5023 22.749 46.6283 22.5145 46.795 22.4857C47.2707 22.4037 47.7566 22.3735 48.2396 22.3417C48.5032 22.3244 48.7718 22.3706 49.0335 22.3436C49.7968 22.265 50.2436 22.8436 50.8124 23.1699C50.9845 23.2695 51.1623 23.3626 51.3908 23.4875ZM43.5311 37.2404C43.629 37.2404 43.6685 37.2454 43.706 37.2398C44.4992 37.117 45.4481 37.3574 45.8522 36.3185C45.8754 36.2589 45.9681 36.1974 46.0354 36.188C46.9904 36.0548 47.2839 35.1513 47.8146 34.5706C48.4187 33.9093 48.5254 32.881 49.2602 32.2595C49.305 32.2216 49.2849 32.112 49.3031 32.0377C49.3788 31.7288 49.4508 31.4188 49.5378 31.1127C49.6529 30.7077 49.8054 30.3122 49.8982 29.9026C50.1175 28.9347 50.2758 27.9517 50.5264 26.9926C50.7101 26.2904 50.5867 25.9025 49.9148 25.6306C49.5531 25.4844 49.1811 25.3624 48.9134 25.2655C48.6963 25.3588 48.5093 25.444 48.3185 25.5195C48.1277 25.5948 47.907 25.6241 47.7459 25.7385C47.4407 25.9554 47.1866 26.2447 46.8791 26.4579C45.9936 27.0723 45.3131 27.8425 44.9289 28.8608C44.8985 28.941 44.8151 29.0006 44.7695 29.0543C44.8502 29.1213 44.9226 29.1813 44.8893 29.1537C44.7103 29.3825 44.5025 29.5455 44.4369 29.7532C44.3074 30.1639 44.2919 30.61 44.167 31.0226C43.5545 33.049 42.9839 35.0756 43.5311 37.2404Z" fill="#F97316"/>
<path fill-rule="evenodd" clip-rule="evenodd" d="M35.4344 23.5161C35.7559 23.2283 35.9446 23.0593 36.0588 22.9572C36.5479 23.2408 36.9475 23.4634 37.3372 23.7019C37.7045 23.927 38.0486 24.1709 37.547 24.606C37.5072 24.6405 37.4539 24.702 37.4608 24.7413C37.6675 25.9036 36.8701 26.8257 36.7063 27.9015C36.6126 28.5174 36.4567 29.1286 36.2741 29.7252C35.6271 31.8388 35.5419 34.0284 35.3765 36.206C35.351 36.5422 35.4154 36.9036 35.5204 37.2268C35.67 37.6862 35.9681 37.8747 36.4473 37.5659C36.9954 37.2128 38.3793 37.6063 38.3835 38.2719C38.3862 38.6936 38.2703 39.1877 38.0298 39.521C37.7398 39.9222 37.1525 40.118 36.8918 40.5284C36.5559 41.0577 36.0735 41.0026 35.6156 41.0976C35.3729 41.148 35.111 41.1514 34.8636 41.1236C34.4661 41.0786 34.0628 41.0263 33.6813 40.9125C32.9751 40.7014 32.4728 40.3462 32.3971 39.4779C32.3467 38.8984 31.9254 38.3594 31.8185 37.7751C31.7135 37.2011 31.7955 36.5928 31.7955 35.9997C31.7455 35.9667 31.6957 35.9334 31.6457 35.9004C31.412 36.2054 31.2369 36.6641 30.9315 36.7806C30.4475 36.9649 30.5954 37.7828 29.9074 37.6841C29.8413 37.6747 29.7105 37.9251 29.6541 38.0719C29.3622 38.8302 28.7784 39.3492 28.1276 39.7448C27.1907 40.314 26.2707 40.97 25.1436 41.1204C24.7859 41.1681 24.401 41.0999 24.0417 41.0234C23.636 40.937 23.2357 40.8043 22.8522 40.6451C22.683 40.5751 22.4805 40.4132 22.4345 40.2523C22.3314 39.8927 22.1266 39.6833 21.8785 39.4093C21.517 39.0099 21.4001 38.314 21.3472 37.7293C21.2823 37.0109 21.4612 36.2717 21.4068 35.551C21.3329 34.575 21.44 33.683 21.8605 32.7747C22.1638 32.12 22.1199 31.3094 22.3968 30.6366C22.8022 29.6532 23.2903 28.6887 23.8651 27.7946C24.4621 26.8662 25.125 25.9511 25.9049 25.1771C26.7594 24.3288 27.4543 23.2887 28.5906 22.7373C29.3445 22.3717 30.0479 21.8895 30.8236 21.5853C31.5338 21.3069 32.3019 21.1291 33.0604 21.0379C33.5645 20.9772 34.141 21.0467 34.5989 21.2511C34.8682 21.3711 35.0117 21.8541 35.1338 22.2012C35.2736 22.5978 35.3267 23.0254 35.4344 23.5161ZM33.2012 24.3709C32.9993 24.4489 32.879 24.4918 32.7617 24.5411C32.0387 24.8447 31.2459 25.0474 30.6142 25.4835C30.0055 25.9038 29.5576 26.5602 29.0491 27.1219C28.4515 27.7821 27.8628 28.4506 27.2761 29.1206C27.2164 29.1886 27.1911 29.2899 27.1602 29.3792C26.8543 30.2557 26.6088 31.1594 26.2295 32.0026C25.8806 32.7783 25.7745 33.5849 25.6375 34.4005C25.5446 34.953 25.3811 35.4937 25.2307 36.1165C25.2696 36.3807 25.3254 36.7618 25.3961 37.2421C25.6264 37.267 25.9942 37.426 26.1996 37.3063C26.8186 36.9459 27.4681 36.5597 27.9341 36.0317C28.7481 35.109 29.4637 34.0941 30.164 33.0787C30.7219 32.2697 31.224 31.4183 31.6957 30.5557C31.9865 30.0239 32.3439 29.4403 32.3609 28.8707C32.3797 28.2454 33.0462 28.0335 32.9899 27.3292C32.9466 26.7847 33.5279 26.1981 33.7994 25.6153C33.8595 25.4869 33.8344 25.2666 33.7607 25.139C33.6014 24.8622 33.3857 24.6177 33.2012 24.3709Z" fill="#F97316"/>
<path fill-rule="evenodd" clip-rule="evenodd" d="M72.3909 37.7717C72.2654 37.6582 72.1399 37.5442 72.0592 37.4709C72.1027 36.9863 72.2137 36.5491 72.1642 36.1307C72.0646 35.2893 71.8477 34.4622 71.7368 33.6217C71.6588 33.0318 71.6843 32.4289 71.6462 31.8329C71.6295 31.5667 71.5826 31.3006 71.5276 31.0389C71.4527 30.6824 71.1689 30.6669 70.9835 30.8581C70.7469 31.1027 70.5675 31.0834 70.2755 30.9968C70.0897 30.9418 69.8454 31.0851 69.6272 31.1393C69.3442 31.2096 69.0641 31.466 68.775 31.1288C68.7304 31.0769 68.5279 31.0667 68.5043 31.1041C68.0811 31.77 67.4527 31.2117 66.9509 31.3752C66.6342 31.4786 66.3206 31.5926 66.0014 31.6878C65.8673 31.7277 65.7123 31.7744 65.5841 31.7442C64.635 31.5219 63.7062 32.193 63.5899 33.1575C63.5307 33.6474 63.4782 34.1771 63.2548 34.6003C62.6787 35.6933 62.672 36.9089 62.398 38.0634C62.1459 39.1271 62.083 40.2387 61.7891 41.288C61.6782 41.6837 61.577 42.2404 61.0237 42.4492C60.5239 42.6376 60.0447 42.559 59.5374 42.545C58.9758 42.5295 58.5361 42.3747 58.1323 42.0295C57.9047 41.8352 57.6866 41.63 57.6123 41.416C57.6405 40.9326 57.7376 40.4414 57.6838 39.9674C57.5276 38.5918 58.0376 37.341 58.3396 36.0514C58.5007 35.363 58.6653 34.6729 58.8825 34.0012C59.0394 33.5161 59.3077 33.0678 59.4818 32.5869C59.5615 32.3664 59.5035 32.0997 59.5615 31.8673C59.6657 31.4491 59.7782 31.0274 59.9491 30.6339C60.0612 30.3751 60.2813 30.1632 60.4771 29.8973C60.1472 29.6986 60.3139 29.4679 60.4794 29.1508C60.6948 28.7378 60.7685 28.2529 60.9258 27.8072C61.1829 27.0781 61.4897 26.3652 61.7186 25.6281C62.0117 24.6825 62.2238 23.7117 62.5168 22.7664C62.7599 21.983 63.0722 21.2213 63.3496 20.4486C63.7117 19.4395 64.0842 18.4339 64.4256 17.4179C64.7413 16.4787 64.9547 15.4993 65.3389 14.5905C65.65 13.855 66.2667 13.2409 66.5327 12.496C66.8455 11.6216 67.4349 11.2147 68.2449 11.0827C69.5165 10.8758 70.784 10.8706 71.9372 11.5992C72.1577 11.7385 72.3972 11.8485 72.6125 11.9952C72.8076 12.1282 73.0327 12.2592 73.1561 12.4487C73.8381 13.4959 73.9849 14.7081 74.1516 15.9065C74.2991 16.9661 74.4029 18.0317 74.5407 19.0924C74.6235 19.7305 74.7553 20.3626 74.8202 21.0019C74.8396 21.1931 74.7072 21.3998 74.6675 21.5263C74.8009 22.084 74.9662 22.593 75.0367 23.1145C75.1291 23.8004 75.1429 24.4968 75.1984 25.1881C75.2312 25.5973 75.2377 26.0151 75.3316 26.411C75.4494 26.9062 75.3691 27.4618 76.005 27.7904C76.3439 27.9655 76.5089 28.5048 76.7183 28.8976C77.0865 29.5888 77.0739 29.5926 76.4746 30.08C76.4029 30.1383 76.3767 30.2557 76.3029 30.3082C75.8841 30.6048 75.9134 31.0042 75.9816 31.4466C76.0383 31.8168 76.2363 32.2252 75.8389 32.5584C75.8002 32.5906 75.8904 32.7833 75.9289 32.8988C76.0535 33.2763 76.2546 33.6445 76.296 34.0305C76.4508 35.4676 76.5562 36.9099 76.6752 38.3506C76.7957 39.8063 76.9231 41.2618 77.0208 42.7194C77.0513 43.178 76.9411 43.5823 76.3455 43.6357C76.1782 43.6505 75.9782 43.7819 75.8722 43.9202C75.4048 44.5299 74.8953 44.2205 74.384 44.0264C74.0621 43.904 73.6301 43.8712 73.4442 43.6398C73.1756 43.3056 73.0208 42.841 72.9331 42.4084C72.7528 41.5185 72.652 40.6125 72.5116 39.714C72.4738 39.4714 72.3957 39.2344 72.3635 38.9913C72.3114 38.5997 72.2822 38.2052 72.2435 37.8119C72.2924 37.7987 72.3416 37.7853 72.3909 37.7717ZM69.7692 16.1689C69.0871 16.0684 68.9599 16.3812 68.9294 16.7916C68.9168 16.961 68.9383 17.1441 68.8812 17.2974C68.6049 18.0384 68.2771 18.7611 68.0228 19.5087C67.5236 20.976 67.077 22.4612 66.5769 23.928C66.3102 24.7099 66.3926 25.6368 65.656 26.2328C65.6443 26.2422 65.6454 26.2692 65.6429 26.2882C65.5657 26.8987 65.4891 27.5091 65.4176 28.0764C65.8161 27.9883 66.2516 27.8659 66.6955 27.8017C67.0902 27.7448 67.5826 27.8908 67.8763 27.7034C68.5501 27.2729 69.2362 27.3815 69.942 27.4028C70.8792 27.4312 71.2724 26.9286 71.0741 25.9962C70.9743 25.5266 70.8691 25.0555 70.8141 24.5798C70.653 23.1822 70.5369 21.7797 70.3644 20.3838C70.1891 18.9678 69.9673 17.5572 69.7692 16.1689Z" fill="#0D9488"/>
<path fill-rule="evenodd" clip-rule="evenodd" d="M14.0377 51.1317C14.0243 51.0948 14.0548 51.1781 14.0557 51.1806C14.447 51.1047 14.816 51.0457 15.1788 50.9597C15.7546 50.8231 16.3523 50.7315 16.8939 50.5079C17.8929 50.0949 18.9175 49.9159 19.9887 49.9347C20.1605 49.9378 20.3402 49.9382 20.5035 49.8939C21.9011 49.5138 23.3549 49.4973 24.7598 49.2479C26.0193 49.0247 27.2955 48.9034 28.5535 48.6632C29.8091 48.4235 31.1056 48.3961 32.3845 48.2813C33.6813 48.1652 34.9784 48.0526 36.2762 47.9455C37.4769 47.8464 38.678 47.7527 39.8796 47.664C40.7297 47.601 41.5803 47.5106 42.4312 47.5031C44.0093 47.4897 45.5878 47.533 47.1663 47.5403C47.5261 47.542 47.8857 47.492 48.2457 47.4684C48.3806 47.4596 48.5187 47.4387 48.6505 47.4573C49.3521 47.5567 50.0378 47.601 50.7626 47.5385C52.0675 47.4257 53.3918 47.4523 54.7026 47.5223C56.0832 47.5962 57.4558 47.8054 58.835 47.9192C59.2615 47.9545 59.6987 47.8819 60.1294 47.8411C61.0488 47.7541 61.887 48.0666 62.7306 48.3547C62.7697 48.3679 62.7875 48.443 62.8178 48.4932C63.2161 48.0461 64.397 48.1426 64.67 48.6628C65.3249 48.1556 65.9669 48.4453 66.6396 48.7093C66.6769 48.5999 66.7162 48.4844 66.7444 48.4009C67.3496 48.6982 67.8665 49.1107 68.6285 48.9492C69.0249 48.8653 69.4778 49.0327 69.9025 49.103C70.2915 49.1676 70.6775 49.254 71.1431 49.346C71.1919 49.8799 71.7481 49.4456 72.0525 49.5079C73.0383 49.7104 74.0537 49.765 75.0501 49.924C75.2915 49.9625 75.5036 50.1832 75.7211 50.3152C76.0767 50.2945 76.4648 50.206 76.8198 50.2786C77.0066 50.3169 77.1015 50.6903 77.299 50.8162C77.5791 50.9948 77.6944 51.1651 77.5232 51.4689C77.5138 51.4856 77.5061 51.5042 77.5019 51.5228C77.2841 52.5604 77.2881 52.5338 76.233 52.3811C75.2182 52.2343 74.1943 52.1537 73.1756 52.0347C73.0076 52.015 72.8187 51.9862 72.6859 51.8941C72.3476 51.6601 72.0422 51.4147 71.7632 51.9613C71.7404 52.0063 71.564 52.0261 71.4994 51.9883C70.6221 51.4758 69.6418 51.8017 68.72 51.6433C67.9225 51.5063 67.1187 51.5576 66.3146 51.2641C65.7083 51.0425 64.9597 51.2145 64.2748 51.2044C63.7997 51.198 63.323 51.2024 62.8515 51.1559C62.666 51.1377 62.4932 50.9936 62.3662 50.9319C62.2185 50.9957 62.0907 51.1005 61.9656 51.0971C60.9473 51.0697 59.9294 51.0235 58.9113 50.9808C57.319 50.9139 55.7273 50.8045 54.1348 50.789C52.4524 50.7725 50.7691 50.8597 49.0858 50.8706C48.4476 50.875 47.8089 50.7693 47.1699 50.7572C46.7502 50.7495 46.2764 50.7093 45.9204 50.8794C45.3508 51.1517 44.7883 51.0055 44.2264 51.0473C43.5282 51.0994 42.8257 51.1061 42.125 51.1143C41.8654 51.1172 41.6054 51.0678 41.3456 51.043C41.2531 51.0342 41.1253 50.9831 41.073 51.0254C40.3818 51.5806 39.5441 51.3967 38.8276 51.2919C38.2174 51.2028 37.7166 51.3789 37.1654 51.4389C35.9453 51.572 34.7211 51.6663 33.5005 51.7952C32.782 51.8709 32.0672 51.9814 31.3514 52.0795C31.1458 52.1077 30.9431 52.1684 30.7372 52.1801C29.015 52.2788 27.3118 52.5388 25.6059 52.7775C24.7803 52.8932 23.9431 52.9403 23.1263 53.0961C22.4586 53.2231 21.821 53.5032 21.1551 53.6454C20.5393 53.7768 19.9028 53.8103 19.2767 53.8958C18.57 53.9925 17.7567 53.9117 17.1823 54.2425C16.1381 54.8441 14.988 54.8357 13.8998 55.1428C13.411 55.2809 12.9158 55.3965 12.4232 55.5214C11.8059 55.6779 11.4268 55.148 10.9171 54.9897C10.6002 54.8911 10.3092 54.7083 9.90712 54.5159C9.88976 54.4606 9.81195 54.2429 9.75212 54.0201C9.56365 53.3181 9.7381 52.8217 10.3037 52.4811C11.1543 51.9686 12.0425 51.5444 13.0304 51.3624C13.3361 51.3063 13.6373 51.2245 14.0377 51.1317Z" fill="#F97316"/>
<path fill-rule="evenodd" clip-rule="evenodd" d="M87.7873 42.1693C87.3582 42.2073 86.929 42.2427 86.5006 42.2843C86.2152 42.3121 85.9167 42.422 85.6488 42.3695C84.6198 42.1674 83.6914 42.6027 82.7162 42.7445C81.9899 42.8502 81.2354 42.8006 80.4959 42.7667C79.6297 42.7274 79.2749 41.9923 78.8913 41.394C78.5461 40.8558 79.3055 39.8339 79.9632 39.7452C80.4225 39.6833 80.8614 39.4647 81.3065 39.308C81.3519 39.2921 81.3984 39.226 81.4101 39.1752C81.5174 38.7141 81.6757 38.2556 81.7073 37.7885C81.7805 36.7143 81.7521 35.6326 81.8391 34.5601C81.9119 33.6627 82.1092 32.7762 82.21 31.88C82.2426 31.589 82.101 31.2815 82.1142 30.9847C82.164 29.8358 82.2387 28.688 82.3156 27.5406C82.3458 27.0932 82.388 26.6447 82.4646 26.2037C82.4861 26.0812 82.6508 25.9835 82.7503 25.8736C82.7166 25.7588 82.6282 25.6099 82.6384 25.4682C82.733 24.1447 82.6633 22.7731 83.0059 21.5144C83.304 20.4199 83.0674 19.2935 83.481 18.2279C83.6448 17.8062 83.508 17.2677 83.508 16.7389C83.1344 16.6 82.6393 16.4345 82.1585 16.2333C81.2967 15.8724 81.2093 15.0127 80.9727 14.2705C80.938 14.1615 81.185 13.8463 81.3425 13.812C82.2882 13.6049 83.2476 13.4605 84.1989 13.2777C84.8516 13.1522 85.4952 12.9786 86.1493 12.8648C86.5077 12.8024 86.8796 12.8169 87.2457 12.801C87.7638 12.7786 88.2818 12.7566 88.8001 12.7426C88.9133 12.7395 89.0478 12.7374 89.1373 12.7922C89.7768 13.1823 90.5799 13.3461 90.8903 13.9584C90.8903 14.4311 90.8748 14.7677 90.8934 15.1022C90.9422 15.9695 90.8597 16.2921 89.8477 16.3038C89.3084 16.3101 88.7641 16.3582 88.232 16.4471C87.5459 16.5617 87.3158 16.9497 87.4601 17.6286C87.472 17.685 87.4906 17.744 87.4848 17.7997C87.3377 19.2288 87.2007 20.659 87.0352 22.0861C86.8673 23.5343 86.6775 24.9802 86.4817 26.4253C86.4338 26.7788 86.3249 27.1242 86.2433 27.4731C86.2347 27.5097 86.2169 27.545 86.2138 27.5821C86.1604 28.2151 86.0966 28.8476 86.0596 29.4815C86.0105 30.3212 85.9958 31.1627 85.9423 32.002C85.8567 33.3399 85.7697 34.6783 85.6465 36.0131C85.5866 36.6622 85.4574 37.3059 85.3323 37.9468C85.2658 38.288 85.3614 38.4573 85.7105 38.5098C86.1807 38.5807 86.6439 38.7139 87.1158 38.7558C88.4146 38.8712 88.9815 40.1092 89.0612 41.115C89.0788 41.3371 88.6949 41.6072 88.4688 41.8277C88.2816 42.0101 88.0548 42.1519 87.8456 42.3117C87.8262 42.264 87.8067 42.2165 87.7873 42.1693Z" fill="#0D9488"/>
<path fill-rule="evenodd" clip-rule="evenodd" d="M80.6541 0C80.8549 0.825031 81.0572 1.53731 81.1892 2.26235C81.2371 2.52509 81.1438 2.82632 81.0681 3.09701C80.8384 3.9166 80.4863 4.69038 80.5966 5.60055C80.6491 6.03127 80.3773 6.5103 80.2117 6.95189C80.1742 7.05105 79.9663 7.13891 79.836 7.14037C79.4954 7.14393 79.1542 7.09665 78.9411 7.0795C78.8731 6.28501 78.8016 5.57608 78.757 4.86526C78.7415 4.61842 78.776 4.36489 78.8158 4.11909C78.9225 3.45681 79.0633 2.79954 79.1547 2.13538C79.2415 1.50698 79.5245 1.04321 80.0711 0.703495C80.2838 0.571289 80.4112 0.301856 80.6541 0Z" fill="#0D9488"/>
<path fill-rule="evenodd" clip-rule="evenodd" d="M87.9119 6.32015C87.7615 6.53247 87.6254 6.80295 87.4199 7.00189C86.2818 8.10514 84.8202 8.69316 83.4509 9.42259C83.2662 9.52112 82.9361 9.45397 82.7288 9.35147C82.6428 9.3088 82.6608 8.96217 82.7037 8.76972C82.9223 7.78968 83.5754 7.1274 84.3527 6.55214C84.7886 6.22957 85.1842 5.85199 85.6191 5.52796C86.1925 5.1008 87.3074 5.25058 87.7398 5.80597C87.8266 5.91726 87.8375 6.08816 87.9119 6.32015Z" fill="#0D9488"/>
<path fill-rule="evenodd" clip-rule="evenodd" d="M70.8373 3.13989C70.972 2.86607 71.072 2.51589 71.2952 2.28473C71.3772 2.20022 71.81 2.33117 71.9805 2.48053C72.4125 2.85874 72.781 3.30849 73.1856 3.71934C73.6412 4.18185 74.1389 4.60692 74.5599 5.09788C74.8716 5.46123 75.1304 5.88609 75.3266 6.32245C75.3894 6.46219 75.2214 6.76865 75.0766 6.92031C74.9494 7.05335 74.6578 7.18618 74.5254 7.12657C74.2133 6.98641 73.9495 6.73518 73.672 6.52181C73.2352 6.18585 72.7262 5.90617 72.3859 5.48989C71.8412 4.82384 71.4088 4.06575 70.9306 3.34531C70.8992 3.29762 70.8825 3.24072 70.8373 3.13989Z" fill="#0D9488"/>
<path fill-rule="evenodd" clip-rule="evenodd" d="M77.9814 52.6644C77.4956 52.205 78.0734 51.663 77.804 51.1898C78.4041 51.458 78.4754 52.0728 77.9814 52.6644Z" fill="#F97316"/>
</svg>
